<?xml version="1.0" encoding="utf-8"?>
<!-- Generator: Adobe Illustrator 27.5.0, SVG Export Plug-In . SVG Version: 6.00 Build 0)  -->
<svg version="1.1" id="Layer_1" xmlns="http://www.w3.org/2000/svg" xmlns:xlink="http://www.w3.org/1999/xlink" x="0px" y="0px"
	 viewBox="0 0 4000 4000" style="enable-background:new 0 0 4000 4000;" xml:space="preserve">
<g>
	<rect style="fill:#E1E1EF;" width="4000" height="4000"/>
	<g>
		<g>
			<g>
				<g>
					<path style="fill:#000072;" d="M1721.58,2103.667c-5.471,0-10.408-3.599-11.985-8.984
						c-1.123-3.828-114.072-384.15-266.936-480.815c-161.467-102.104-184.673-221.563-185.583-226.597l24.597-4.478
						c0.21,1.128,22.844,114.141,174.348,209.941c118.918,75.2,211.172,301.05,253.069,420.103v-702.393h25v780.723
						c0,6.216-4.57,11.489-10.723,12.373C1722.766,2103.627,1722.171,2103.667,1721.58,2103.667z"/>
				</g>
				<g>
					<path style="fill:#000072;" d="M1733.877,2093.466l-24.575-4.6c2.5-13.354,62.756-328.188,198.772-427.969
						c128.01-93.911,162.556-294.341,162.891-296.352l24.663,4.092c-1.431,8.633-36.631,212.549-172.764,312.417
						C1794.805,1775,1734.47,2090.292,1733.877,2093.466z"/>
				</g>
			</g>
			<g>
				<g>
					<g>
						
							<ellipse transform="matrix(0.9684 -0.2494 0.2494 0.9684 -207.4018 323.6196)" style="fill:#FFC200;" cx="1173.187" cy="980.144" rx="312.653" ry="411.827"/>
					</g>
					<g>
						<path style="fill:#FFC200;" d="M1227.001,1386.311c0,0,11.646,49.682-9.186,104.748l163.125-42.018
							c0,0-49.997-44.906-54.762-85.382"/>
					</g>
				</g>
				<g style="opacity:0.3;">
					<path style="fill:#000072;" d="M1326.178,1363.658l-41.861,9.561c2.614,5.188,5.63,10.266,8.843,15.127
						c14.609,22.108,2.502,52.085-23.159,58.695l-43.119,11.107c-1.921,10.496-4.777,21.571-9.067,32.911l163.125-42.018
						C1380.94,1449.04,1330.943,1404.134,1326.178,1363.658z"/>
				</g>
				<g style="opacity:0.3;">
					<path style="fill:#000072;" d="M1475.958,902.156c-30.996-120.336-99.284-217.701-182.1-274.343
						c48.103,54.935,86.2,125.882,107.187,207.36c56.734,220.256-32.829,433.726-200.045,476.797
						c-75.858,19.54-154.631,0.554-223.397-46.479c81.932,93.569,192.951,140.6,298.309,113.461
						C1443.128,1335.882,1532.692,1122.412,1475.958,902.156z"/>
				</g>
				<g style="opacity:0.7;">
					<path style="fill:#FFFFFF;" d="M915.045,1085.184c-56.734-220.256,32.829-433.726,200.045-476.797
						c61.974-15.963,125.904-6.228,184.732,23.498c-70.145-50.057-151.309-70.654-229.36-50.55
						c-167.216,43.072-256.779,256.541-200.045,476.797c35.707,138.625,120.868,246.847,220.766,297.325
						C1011.049,1298.272,945.297,1202.633,915.045,1085.184z"/>
				</g>
				<g>
					<g style="opacity:0.5;">
						
							<ellipse transform="matrix(0.0532 -0.9986 0.9986 0.0532 130.8615 1817.0852)" style="fill:#FFFFFF;" cx="1023.683" cy="839.532" rx="84.739" ry="45.136"/>
					</g>
					<g style="opacity:0.5;">
						
							<ellipse transform="matrix(0.0532 -0.9986 0.9986 0.0532 125.1718 1990.2322)" style="fill:#FFFFFF;" cx="1112.151" cy="929.106" rx="51.696" ry="27.536"/>
					</g>
				</g>
				<g>
					<g>
						<path style="fill:#000072;" d="M1215.161,1402.983c-65.999,0.005-132.903-24.888-193.562-72.881
							c-79.368-62.798-138.677-157.939-167-267.9c-28.323-109.956-22.358-221.909,16.797-315.234
							c39.807-94.878,109.055-159.316,194.99-181.455c85.94-22.134,177.7,0.83,258.389,64.673
							c79.368,62.798,138.677,157.939,167,267.9c28.323,109.956,22.358,221.909-16.797,315.234
							c-39.807,94.878-109.055,159.316-194.99,181.455C1258.655,1400.268,1236.953,1402.983,1215.161,1402.983z M1131.038,590.009
							c-19.041,0-37.942,2.363-56.501,7.144c-75.808,19.526-137.253,77.222-173.015,162.456
							c-36.411,86.782-41.838,191.353-15.286,294.448c26.555,103.091,81.826,192.026,155.635,250.425
							c72.488,57.353,154.155,78.184,229.968,58.652c75.811-19.526,137.253-77.222,173.015-162.456
							c36.411-86.782,41.838-191.353,15.286-294.448l0,0c-26.555-103.091-81.826-192.026-155.635-250.425
							C1249.763,612.495,1189.776,590.009,1131.038,590.009z"/>
					</g>
					<g>
						<path style="fill:#000072;" d="M1217.815,1507.392c-4.58,0-9.026-1.929-12.166-5.434c-4.07-4.541-5.271-10.972-3.113-16.68
							c18.684-49.39,8.655-94.834,8.55-95.288l31.819-7.407c0.435,1.855,8.848,38.975-1.301,85.483l107.991-27.817
							c-16.172-18.491-36.333-46.592-39.641-74.683l32.446-3.818c3.303,28.057,36.826,63.76,49.465,75.151
							c4.47,4.028,6.367,10.19,4.934,16.035c-1.436,5.84-5.959,10.425-11.785,11.929l-163.125,42.017
							C1220.54,1507.226,1219.173,1507.392,1217.815,1507.392z"/>
					</g>
				</g>
			</g>
			<g>
				<path style="fill:#00C3FF;" d="M2049.856,1305.413c0,0-26.837,43.402-80.471,67.682l145.175,85.437
					c0,0-3.691-67.102,21.516-99.127"/>
			</g>
			<g>
				
					<ellipse transform="matrix(0.5072 -0.8618 0.8618 0.5072 288.2999 2463.8245)" style="fill:#00C3FF;" cx="2298.563" cy="979.818" rx="411.827" ry="312.653"/>
			</g>
			<g style="opacity:0.3;">
				<path style="fill:#000072;" d="M2622.749,775.282c-2.191,77.467-25.45,160.594-71.243,238.404
					c-115.36,196.019-329.516,283.927-478.331,196.348c-56.127-33.031-94.918-86.321-115.308-150.389
					c-3.329,117.688,42.076,222.282,131.818,275.097c148.815,87.58,362.972-0.328,478.331-196.348
					C2639.867,1016.305,2656.421,881.085,2622.749,775.282z"/>
			</g>
			<g style="opacity:0.3;">
				<path style="fill:#000072;" d="M2136.077,1359.406l-41.523-26.003c-2.079,6.368-3.675,13.01-4.897,19.582
					c-4.573,24.586-32.131,37.175-53.683,24.491l-36.58-21.528c-8.859,6.165-18.814,12.079-30.008,17.146l145.175,85.438
					C2114.56,1458.533,2110.869,1391.431,2136.077,1359.406z"/>
			</g>
			<g style="opacity:0.7;">
				<path style="fill:#FFFFFF;" d="M2040.881,875.496c115.36-196.02,329.517-283.928,478.332-196.348
					c57.364,33.759,96.561,88.714,116.569,154.676c-12.343-89.819-55.861-166.275-128.341-208.931
					c-148.815-87.58-362.972,0.328-478.332,196.347c-70.892,120.459-87.892,253.666-55.994,358.824
					C1960.115,1085.467,1981.707,976.044,2040.881,875.496z"/>
			</g>
			<g style="opacity:0.5;">
				
					<ellipse transform="matrix(0.6011 -0.7992 0.7992 0.6011 250.5335 2122.8645)" style="fill:#FFFFFF;" cx="2251.851" cy="810.46" rx="82.18" ry="43.773"/>
			</g>
			<g style="opacity:0.5;">
				
					<ellipse transform="matrix(0.6011 -0.7992 0.7992 0.6011 163.7511 2188.905)" style="fill:#FFFFFF;" cx="2274.614" cy="930.415" rx="50.135" ry="26.704"/>
			</g>
			<g>
				<path style="fill:#000072;" d="M2217.561,1385.126c-48.799,0-95.083-12.134-136.162-36.309
					c-76.479-45.01-125.237-126.069-137.29-228.247c-11.858-100.508,13.33-209.756,70.923-307.617
					c119.741-203.462,344.36-294.155,500.693-202.139c76.479,45.01,125.237,126.069,137.29,228.252
					c11.858,100.508-13.33,209.756-70.923,307.612c-57.59,97.861-140.869,172.92-234.495,211.353
					C2303.54,1376.113,2259.617,1385.126,2217.561,1385.126z M2379.519,607.314c-120.933,0-254.404,82.998-336.333,222.212
					c-53.994,91.748-77.659,193.75-66.633,287.217c10.83,91.797,53.95,164.214,121.416,203.921
					c67.471,39.702,151.719,42.241,237.224,7.144c87.065-35.737,164.749-105.952,218.745-197.7l0,0
					c53.994-91.743,77.659-193.745,66.633-287.217c-10.828-91.792-53.948-164.214-121.416-203.921
					C2462.647,617.485,2421.851,607.314,2379.519,607.314z"/>
			</g>
			<g>
				<path style="fill:#000072;" d="M2114.551,1474.868c-2.861,0-5.72-0.752-8.276-2.256l-145.176-85.44
					c-5.256-3.091-8.352-8.857-8.025-14.951c0.325-6.089,4.016-11.489,9.575-14.009c48.105-21.777,73.091-61.035,73.337-61.431
					l27.764,17.222c-1.003,1.621-21.26,33.848-61.282,59.609l96.108,56.563c1.604-24.512,7.17-58.647,24.663-80.874l25.674,20.205
					c-17.473,22.197-18.948,71.152-18.042,88.145c0.32,6.006-2.688,11.714-7.827,14.834
					C2120.437,1474.072,2117.493,1474.868,2114.551,1474.868z"/>
			</g>
			<g>
				<ellipse style="fill:#FF1563;" cx="1721.588" cy="770.807" rx="333.504" ry="439.292"/>
			</g>
			<g>
				<path style="fill:#FF1563;" d="M1669.106,1204.684c0,0-1.19,54.419-37.36,105.757h179.684c0,0-39.697-59.69-33.85-102.769"/>
			</g>
			<g style="opacity:0.3;">
				<path style="fill:#000072;" d="M1777.58,1207.673l-48.028-1.323c1.473,6.38,3.425,12.738,5.638,18.879
					c9.108,25.276-9.307,51.96-36.174,51.96h-48.33c-4.899,10.839-11.094,22.117-18.939,33.253h179.684
					C1811.43,1310.442,1771.733,1250.752,1777.58,1207.673z"/>
			</g>
			<g style="opacity:0.3;">
				<path style="fill:#000072;" d="M1969.907,477.646c16.267,51.743,25.291,108.438,25.291,167.927
					c0,242.614-149.315,439.292-333.504,439.292c-98.648,0-187.259-56.457-248.318-146.131
					c50.076,159.281,169.187,271.365,308.213,271.365c184.189,0,333.504-196.678,333.504-439.292
					C2055.092,658.133,2022.854,555.406,1969.907,477.646z"/>
			</g>
			<g style="opacity:0.7;">
				<path style="fill:#FFFFFF;" d="M1423.477,808.144c0-242.614,149.315-439.291,333.504-439.291
					c70.772,0,136.347,29.121,190.33,78.644c-59.396-71.985-138.647-115.981-225.722-115.981
					c-184.189,0-333.504,196.678-333.504,439.292c0,149.393,56.664,281.285,143.175,360.648
					C1465.015,1051.172,1423.477,936.063,1423.477,808.144z"/>
			</g>
			<g style="opacity:0.5;">
				
					<ellipse transform="matrix(0.17 -0.9854 0.9854 0.17 762.0557 2052.0627)" style="fill:#FFFFFF;" cx="1599.185" cy="573.656" rx="93.634" ry="49.874"/>
			</g>
			<g style="opacity:0.5;">
				
					<ellipse transform="matrix(0.17 -0.9854 0.9854 0.17 724.837 2227.3928)" style="fill:#FFFFFF;" cx="1684.657" cy="683.414" rx="57.123" ry="30.426"/>
			</g>
			<g>
				<path style="fill:#000072;" d="M1721.59,1226.43c-192.903,0-349.841-204.39-349.841-455.625
					c0-251.23,156.938-455.62,349.841-455.62c192.9,0,349.839,204.39,349.839,455.62
					C2071.428,1022.041,1914.49,1226.43,1721.59,1226.43z M1721.59,347.851c-174.888,0-317.17,189.736-317.17,422.954
					s142.283,422.959,317.17,422.959s317.168-189.741,317.168-422.959S1896.477,347.851,1721.59,347.851z"/>
			</g>
			<g>
				<path style="fill:#000072;" d="M1811.431,1326.777h-179.685c-6.099,0-11.692-3.398-14.5-8.813
					c-2.81-5.41-2.368-11.938,1.145-16.929c32.651-46.343,34.373-96.255,34.385-96.753l32.661,0.757
					c-0.044,2.046-1.252,43.33-24.775,89.072h122.5c-11.904-23.281-25.881-58.32-21.768-88.633l32.373,4.394
					c-4.116,30.327,21.174,76.353,31.265,91.523c3.335,5.015,3.64,11.455,0.796,16.763
					C1822.984,1323.466,1817.451,1326.777,1811.431,1326.777z"/>
			</g>
		</g>
		<g>
			<g>
				<g>
					<g>
						<radialGradient id="SVGID_1_" cx="2030.3264" cy="1795.9247" r="1210.8831" gradientUnits="userSpaceOnUse">
							<stop  offset="0" style="stop-color:#73739B"/>
							<stop  offset="0.4791" style="stop-color:#717199"/>
							<stop  offset="0.6729" style="stop-color:#6B6B92"/>
							<stop  offset="0.8151" style="stop-color:#605F86"/>
							<stop  offset="0.9313" style="stop-color:#504F74"/>
							<stop  offset="1" style="stop-color:#434266"/>
						</radialGradient>
						<path style="fill:url(#SVGID_1_);" d="M2499.653,1821.779c0,0-24.908,24.417-20.062,79.08
							c-6.258-2.393-177.117-87.853-177.117-87.853s-13.068,68.098,16.073,134.663l-1.656,0.737
							c-21.84-1.473-42.699-0.92-62.7,1.472c-136.626,15.889-230.491,114.417-291.228,212.761
							c-42.945,69.693-69.326,139.264-82.577,179.51c-6.503,19.816-9.816,32.454-10.307,34.54c-0.061,0.184-0.123,0.307-0.123,0.307
							s-102.577,130.123,0,287.915c72.148,110.982,274.357,235.952,493.069,228.16c80.614-2.822,163.436-23.742,242.823-70.061
							c11.35-6.565,22.638-13.743,33.804-21.411C2941.372,2594.542,2827.015,2033.006,2499.653,1821.779z M2219.713,2613.928
							c-15.706,31.35-67.117,106.503-196.81,103.374c-12.27-75.399,21.227-116.81,21.227-116.81
							c-24.295-13.804-68.344-12.515-68.344-12.515s34.295-56.503,109.693-81.104c0.123-0.062,0.246-0.062,0.368-0.123
							c0.614-0.184,1.963-0.614,3.927-1.227c0.798-0.246,1.595-0.491,2.454-0.675c19.448-5.705,41.411-9.202,66.073-9.202
							c5.767,0,11.289,1.902,15.706,5.337c0,0,0,0,0.062,0.062c1.779,1.289,3.374,2.884,4.724,4.724
							c3.987,5.399,9.202,12.822,14.846,22.086c0.123,0.184,0.245,0.368,0.307,0.491c3.62,6.012,7.424,12.761,11.227,20.123
							c0.368,0.675,0.675,1.35,0.981,2.024c0,0.062,0,0.062,0,0.062c5.522,11.104,10.921,23.681,15.522,37.424
							C2224.56,2596.505,2223.763,2605.83,2219.713,2613.928z"/>
						
							<radialGradient id="SVGID_00000062169363872353050440000001235789602046965391_" cx="2929.7571" cy="3140.8008" r="536.2187" gradientUnits="userSpaceOnUse">
							<stop  offset="0" style="stop-color:#73739B"/>
							<stop  offset="0.4791" style="stop-color:#717199"/>
							<stop  offset="0.6729" style="stop-color:#6B6B92"/>
							<stop  offset="0.8151" style="stop-color:#605F86"/>
							<stop  offset="0.9313" style="stop-color:#504F74"/>
							<stop  offset="1" style="stop-color:#434266"/>
						</radialGradient>
						<path style="fill:url(#SVGID_00000062169363872353050440000001235789602046965391_);" d="M2735.297,3374.973
							c-3.926,40.92-52.638,59.755-83.068,32.209c-38.834-35.215-73.436-75.89-103.988-118.712
							c-128.221-179.448-185.215-395.338-185.215-395.338v-0.062c92.147-3.252,187.178-30.062,276.627-91.473
							C2749.776,3017.242,2747.138,3251.905,2735.297,3374.973z"/>
						
							<radialGradient id="SVGID_00000000918075426570787040000000010219194650530996_" cx="1647.7664" cy="2284.9707" r="1394.8386" gradientUnits="userSpaceOnUse">
							<stop  offset="0" style="stop-color:#73739B"/>
							<stop  offset="0.4791" style="stop-color:#717199"/>
							<stop  offset="0.6729" style="stop-color:#6B6B92"/>
							<stop  offset="0.8151" style="stop-color:#605F86"/>
							<stop  offset="0.9313" style="stop-color:#504F74"/>
							<stop  offset="1" style="stop-color:#434266"/>
						</radialGradient>
						<path style="fill:url(#SVGID_00000000918075426570787040000000010219194650530996_);" d="M2548.242,3288.47
							c-26.38,85.828-1.288,100.798-26.258,242.761c-24.969,141.963-182.761,121.411-182.761,121.411
							c125.154-76.872,172.884-304.111,110.123-319.142c-14.294-3.436-26.442-4.724-36.748-4.601
							c-40.246,0.429-52.025,22.208-52.025,22.208h-0.061c-6.442-32.086-16.197-57.178-24.663-74.785
							c-9.571-19.877-33.865-27.24-52.945-16.074c-30.491,17.915-49.693,46.933-61.534,73.743l-0.798-0.307
							c-5.154-9.755-12.638-14.847-20.675-17.178c-21.534-6.319-43.742,7.73-50.062,29.264
							c-11.104,38.037-16.073,71.841-16.38,101.963c-0.675,57.362,15.522,101.166,37.73,134.111
							c-5.399-5.521-84.172-83.313-222.393-79.51c-143.252,3.927-218.958-22.086-218.958-22.086
							c18.037-11.104,34.233-25.828,48.405-42.761c15.767-18.65,29.019-40,39.693-62.209c2.331-4.846,4.54-9.693,6.626-14.601
							c34.847-81.227,36.319-168.466-0.307-175.89c-64.11-13.006-80.307,16.626-80.307,16.626
							c-6.932-27.853-16.258-49.571-24.233-64.847c-9.325-17.73-31.595-23.62-48.467-12.884
							c-5.889,3.742-11.288,7.914-16.196,12.454c0,0,0-0.061,0.061-0.123c1.35-4.969,33.313-113.251,90.982-242.577
							c33.129-74.356,74.724-155.767,123.865-228.528c72.148,110.982,274.357,235.952,493.069,228.16v0.062
							c0,0,34.724,131.595,111.043,274.663C2495.42,3207.979,2520.144,3249.083,2548.242,3288.47z"/>
						
							<radialGradient id="SVGID_00000016759562227422569340000000398794181384492734_" cx="1537.3364" cy="1906.3541" r="955.991" gradientUnits="userSpaceOnUse">
							<stop  offset="0" style="stop-color:#73739B"/>
							<stop  offset="0.4791" style="stop-color:#717199"/>
							<stop  offset="0.6729" style="stop-color:#6B6B92"/>
							<stop  offset="0.8151" style="stop-color:#605F86"/>
							<stop  offset="0.9313" style="stop-color:#504F74"/>
							<stop  offset="1" style="stop-color:#434266"/>
						</radialGradient>
						<path style="fill:url(#SVGID_00000016759562227422569340000000398794181384492734_);" d="M1869.958,2376.995
							c0,0-102.577,130.123,0,287.915c-49.141,72.761-90.736,154.172-123.865,228.528
							c-100.859-269.694-136.381-461.964-140.246-597.609c103.313,76.381,185.031-82.332,194.847-187.301
							c25.46,51.963,53.068,126.565,79.693,233.62C1873.271,2363.866,1869.958,2376.995,1869.958,2376.995z"/>
						<g>
							<g>
								<g>
									
										<radialGradient id="SVGID_00000139974463481497792510000018352348882402285461_" cx="1606.355" cy="2020.7279" r="293.1536" gradientUnits="userSpaceOnUse">
										<stop  offset="0" style="stop-color:#73739B"/>
										<stop  offset="0.4791" style="stop-color:#717199"/>
										<stop  offset="0.6729" style="stop-color:#6B6B92"/>
										<stop  offset="0.8151" style="stop-color:#605F86"/>
										<stop  offset="0.9313" style="stop-color:#504F74"/>
										<stop  offset="1" style="stop-color:#434266"/>
									</radialGradient>
									<path style="fill:url(#SVGID_00000139974463481497792510000018352348882402285461_);" d="M1800.694,2108.528
										c-9.816,104.969-91.534,263.682-194.847,187.301c-3.988-139.51,25.521-219.326,51.902-262.332
										c4.172-6.81,9.509-12.331,15.521-16.565l1.718-1.104c0,0,78.282-45.399,117.73,26.564
										C1800.878,2057.301,1803.271,2081.104,1800.694,2108.528z"/>
								</g>
							</g>
						</g>
					</g>
					<g>
						<g>
							<g>
								<g>
									<path style="fill:#FFFFFF;" d="M2581.494,2630.063c0,0,41.779,80.307,24.356,192.946
										c-79.387,46.319-162.209,67.239-242.823,70.061c-218.712,7.792-420.921-117.178-493.069-228.16
										c-102.577-157.792,0-287.915,0-287.915s3.313-13.129,10.43-34.847c13.251-40.245,39.632-109.816,82.577-179.51
										c50.982-20,119.755-28.896,160.675,40.797c70.184,119.571-35.583,299.142-38.098,303.375c0.062,0,0.184,0,0.307-0.061
										c0.614-0.184,1.963-0.614,3.927-1.227c0.736-0.184,1.534-0.429,2.454-0.675c15.889-4.417,56.626-13.926,81.779-3.865
										c0,0,0,0,0.062,0.062c0.859,1.043,10.307,12.393,19.571,26.81c0.123,0.184,0.245,0.368,0.307,0.491
										c4.049,6.319,8.037,13.251,11.227,20.123c0.368,0.675,0.675,1.35,0.981,2.024c2.822-6.012,163.068-346.565,339.081-248.467
										c5.951,3.374,11.411,7.546,16.38,12.208C2590.819,2342.026,2671.064,2441.106,2581.494,2630.063z"/>
								</g>
							</g>
						</g>
						<g>
							<g>
								<g>
									<path style="fill:#FFFFFF;" d="M2474.07,3167.795c-7.73,57.792-30.859,113.007-61.473,161.105
										c-80.859,127.117-213.682,204.786-252.148,151.35c-9.203-12.822-18.098-23.497-26.994-32.515
										c-45.583-46.135-91.964-46.135-189.878-43.681c-50.797,1.288-93.559-12.577-125.644-28.773
										c41.166-85.031,45.153-182.638,6.319-190.491c-64.11-13.006-80.307,16.626-80.307,16.626
										c-6.932-27.853-16.258-49.571-24.233-64.847c-9.325-17.73-31.595-23.62-48.467-12.884
										c-5.889,3.742-11.288,7.914-16.196,12.454c0.92-3.374,32.945-112.332,91.043-242.7
										c33.129-74.356,74.724-155.767,123.865-228.528c72.148,110.982,274.357,235.952,493.069,228.16v0.062
										C2363.027,2893.132,2397.751,3024.727,2474.07,3167.795z"/>
								</g>
							</g>
						</g>
					</g>
					<g>
						<g>
							<g>
								<path style="fill:#000072;" d="M2166.4,2614.971c-41.411,46.994-143.497,102.331-143.497,102.331
									c-12.27-75.399,21.227-116.81,21.227-116.81C2068.425,2614.296,2103.946,2636.628,2166.4,2614.971z"/>
							</g>
						</g>
					</g>
					<g>
						<g>
							<g>
								<g>
									<path style="fill:#FF9700;" d="M1729.835,3480.249c-5.644,3.497-11.534,6.626-17.546,9.387
										c-12.577,5.767-27.055,5.706-39.816,0.368c-49.141-20.491-168.467-91.411-119.08-284.725
										c5.031-19.755,24.724-33.129,44.417-28.098c7.362,1.902,14.295,6.258,19.264,14.908l0.736,0.307
										c7.73-19.264,19.509-39.877,37.178-56.196l0.061-0.062c4.908-4.54,10.307-8.712,16.196-12.454
										c16.871-10.736,39.141-4.847,48.467,12.884c7.975,15.276,17.301,36.994,24.233,64.847c0,0,16.197-29.632,80.307-16.626
										C1882.412,3196.568,1844.498,3409.574,1729.835,3480.249z"/>
								</g>
							</g>
						</g>
						<g>
							<g>
								<g>
									<path style="fill:#FF9700;" d="M2339.223,3652.643c-8.896,5.399-18.159,10.123-27.792,13.927
										c-12.208,4.847-25.89,4.54-37.853-0.798c-24.969-10.982-70.062-36.012-102.332-83.865c0,0,0-0.061-0.061-0.061
										c-33.865-50.245-53.681-125.583-21.35-236.074c6.319-21.534,28.528-35.583,50.062-29.264
										c8.037,2.331,15.521,7.423,20.675,17.178l0.798,0.307c11.841-26.81,31.043-55.828,61.534-73.743
										c19.08-11.166,43.375-3.803,52.945,16.074c8.466,17.607,18.221,42.7,24.663,74.785h0.061c0,0,18.589-34.356,88.773-17.607
										C2512.107,3348.531,2464.377,3575.771,2339.223,3652.643z"/>
								</g>
							</g>
						</g>
					</g>
					<g style="opacity:0.3;">
						<g>
							<g>
								<path style="fill:#000072;" d="M1831.495,3187.729c-6.638,71.57-48.36,172.183-120.422,216.599
									c-5.644,3.497-11.534,6.626-17.546,9.387c-12.577,5.767-27.055,5.706-39.816,0.368
									c-29.045-12.111-82.59-41.86-111.345-104.062c8.052,115.659,91.122,163.727,130.107,179.982
									c12.761,5.337,27.239,5.399,39.816-0.368c6.013-2.761,11.902-5.89,17.546-9.387
									C1839.305,3412.775,1878.751,3215.703,1831.495,3187.729z"/>
							</g>
						</g>
					</g>
					<g>
						<g style="opacity:0.3;">
							<g>
								<g>
									<path style="fill:#000072;" d="M2340.563,3292.645c0,0,0.527-0.907,1.57-2.268c-1.433-3.444-2.853-6.634-4.257-9.687
										c0.922,3.873,1.802,7.853,2.626,11.955H2340.563z"/>
								</g>
							</g>
						</g>
						<g style="opacity:0.3;">
							<g>
								<g>
									<path style="fill:#000072;" d="M2456.811,3336.757c-0.652,76.871-50.224,203.757-137.598,257.423
										c-8.896,5.399-18.159,10.123-27.791,13.927c-12.208,4.847-25.89,4.54-37.853-0.798
										c-24.969-10.982-70.062-36.012-102.332-83.865c0,0,0-0.061-0.061-0.061c-4.678-6.941-9.05-14.413-13.092-22.339
										c6.27,32.248,18.348,58.911,33.102,80.802c0.061,0,0.061,0.061,0.061,0.061c32.27,47.853,77.363,72.884,102.332,83.865
										c11.963,5.337,25.644,5.644,37.853,0.798c9.632-3.804,18.896-8.528,27.792-13.927
										C2458.952,3579.103,2507.748,3368.083,2456.811,3336.757z"/>
								</g>
							</g>
						</g>
					</g>
					<g style="opacity:0.7;">
						<g>
							<g>
								<path style="fill:#FFFFFF;" d="M1565.211,3246.263c5.031-19.755,24.724-33.129,44.417-28.098
									c0.074,0.019,0.147,0.038,0.221,0.058c14.501,3.848,29.876-1.118,38.298-13.534l18.659-27.505l0,0l0.061-0.062
									c4.908-4.54,10.307-8.711,16.196-12.454c16.871-10.736,39.141-4.846,48.467,12.884
									c7.975,15.276,17.301,36.994,24.233,64.847c0,0,16.197-29.632,80.307-16.626c6.005,1.216,10.928,4.68,14.906,9.809
									c-1.476-27.891-10.224-47.45-26.724-50.792c-64.11-13.006-80.307,16.626-80.307,16.626
									c-6.932-27.853-16.258-49.571-24.233-64.847c-9.325-17.73-31.595-23.62-48.467-12.884
									c-5.889,3.742-11.288,7.914-16.196,12.454l-0.061,0.062c-17.669,16.319-29.448,36.932-37.178,56.196l-0.736-0.307
									c-4.969-8.65-11.902-13.006-19.264-14.908c-19.693-5.031-39.387,8.344-44.417,28.098
									c-18.902,73.987-13.048,129.994,4.083,172.159C1550.912,3341.67,1551.875,3298.464,1565.211,3246.263z"/>
							</g>
						</g>
					</g>
					<g>
						<g>
							<g>
								<path style="fill:#FF457A;" d="M2046.829,2675.892c-4.832-29.694-2.532-54.026,1.991-72.723
									c-1.61-0.917-3.172-1.813-4.69-2.676c0,0-33.497,41.411-21.227,116.81c0,0,102.086-55.337,143.497-102.331
									c-12.625,4.378-24.1,6.889-34.653,8.106C2090.114,2652.422,2046.829,2675.892,2046.829,2675.892z"/>
							</g>
						</g>
					</g>
					<g>
						<g>
							<g>
								<g>
									<path style="fill:#FFDA64;" d="M2219.713,2613.928c-15.644,31.166-66.564,105.706-194.786,103.436
										c-0.675,0-1.349-0.062-2.025-0.062c0,0,102.086-55.337,143.497-102.331c-62.454,21.656-97.976-0.675-122.27-14.479
										s-68.344-12.515-68.344-12.515s0,0,0.061-0.061c1.718-2.822,57.976-92.332,182.454-92.271
										c8.037,0,15.706,3.681,20.491,10.123c9.509,12.761,25.889,37.301,38.405,69.878c1.595,3.988,3.067,8.098,4.478,12.331
										C2224.56,2596.505,2223.763,2605.83,2219.713,2613.928z"/>
								</g>
							</g>
						</g>
					</g>
				</g>
				<g>
					<g style="opacity:0.3;">
						<g>
							<g>
								<path style="fill:#000072;" d="M2758.09,2146.34c53.5,212.289,14.022,435.483-152.977,550.086
									c-11.166,7.669-22.454,14.847-33.804,21.412c-79.387,46.319-162.209,67.239-242.823,70.061
									c-218.712,7.792-420.921-117.178-493.069-228.16c-3.538-5.443-6.781-10.845-9.844-16.219
									c3.625,36.986,16.265,78.134,44.384,121.39c72.148,110.982,274.357,235.952,493.069,228.16
									c80.614-2.822,163.436-23.742,242.823-70.061c11.35-6.565,22.638-13.743,33.804-21.411
									C2834.621,2667.8,2855.804,2386.002,2758.09,2146.34z"/>
							</g>
						</g>
					</g>
					<g style="opacity:0.3;">
						<g>
							<g>
								<path style="fill:#000072;" d="M2219.713,2613.928c-15.644,31.166-66.564,105.706-194.786,103.436
									c-0.675,0-1.349-0.062-2.025-0.062c0,0,102.086-55.337,143.497-102.331c-62.454,21.656-97.976-0.675-122.27-14.479
									s-68.344-12.515-68.344-12.515s0,0,0.061-0.061c1.963-1.289,41.35-26.565,123.742,0.061
									c64.234,20.736,88.221-19.816,117.608-12.331c1.595,3.988,3.067,8.098,4.478,12.331
									C2224.56,2596.505,2223.763,2605.83,2219.713,2613.928z"/>
							</g>
						</g>
					</g>
					<g style="opacity:0.3;">
						<g>
							<g>
								<path style="fill:#000072;" d="M2489.611,2084.589c-153.668,19.529-213.271-74.933-235.419-134.712
									c20-2.393,40.859-2.945,62.7-1.472l1.656-0.737c-29.141-66.564-16.073-134.663-16.073-134.663
									c20.668,105.656,131.248,190.782,195.957,232.462C2515.136,2056.229,2509.324,2082.084,2489.611,2084.589z"/>
							</g>
						</g>
					</g>
					<g style="opacity:0.3;">
						<g>
							<g>
								<path style="fill:#000072;" d="M2639.653,2801.597c-89.448,61.411-184.479,88.221-276.627,91.473v0.062
									c0,0,5.61,21.243,17.259,55.922c41.336-1.526,83.399-7.985,125.557-20.395c64.751-19.061,132.709,20.813,147.178,86.743
									c33.531,152.788,24.378,298.48,9.313,398.813c30.054,16.219,69.448-2.6,72.964-39.242
									C2747.138,3251.905,2749.776,3017.242,2639.653,2801.597z"/>
							</g>
						</g>
					</g>
					<g style="opacity:0.3;">
						<g>
							<g>
								<path style="fill:#000072;" d="M1792.719,2042.393c-6.605-12.05-14.312-20.749-22.545-26.981
									c6.159,14.955,7.838,36.472,5.543,60.908c-9.02,96.457-78.771,238.143-170.183,201.25c0.048,5.983,0.136,12.041,0.314,18.26
									c103.313,76.381,185.031-82.332,194.847-187.301C1803.271,2081.104,1800.878,2057.301,1792.719,2042.393z"/>
							</g>
						</g>
					</g>
					<g style="opacity:0.3;">
						<g>
							<g>
								<path style="fill:#000072;" d="M1812.526,2158.807c21.467,43.813,44.458,103.811,67.103,185.696
									c0.26-0.801,0.487-1.527,0.758-2.354c-26.626-107.055-54.233-181.657-79.693-233.62
									c-8.36,89.396-68.885,217.664-150.47,206.609c-3.16-0.428-6.355-1.094-9.575-1.942c-1.096-0.291-2.196-0.615-3.299-0.957
									c-1.773-0.546-3.553-1.158-5.343-1.838c-1.767-0.678-3.54-1.402-5.323-2.214c-0.948-0.429-1.896-0.86-2.849-1.328
									c-2.519-1.245-5.052-2.609-7.601-4.132c-0.622-0.37-1.248-0.774-1.872-1.162c-2.823-1.759-5.657-3.623-8.515-5.735
									c0.131,4.607,0.307,9.293,0.512,14.031c0.063,1.442,0.145,2.918,0.214,4.372c0.161,3.359,0.332,6.736,0.531,10.161
									c0.098,1.687,0.21,3.398,0.318,5.101c0.209,3.312,0.432,6.647,0.678,10.021c0.124,1.705,0.254,3.42,0.388,5.141
									c0.276,3.553,0.574,7.144,0.891,10.764c0.136,1.548,0.268,3.091,0.411,4.652c0.382,4.174,0.798,8.402,1.235,12.665
									c0.105,1.025,0.201,2.034,0.31,3.064c1.756,16.682,3.946,34.054,6.596,52.125c0.049,0.331,0.101,0.666,0.149,0.997
									c0.837,5.678,1.723,11.43,2.653,17.248c0.092,0.575,0.187,1.154,0.28,1.731c0.932,5.781,1.91,11.632,2.936,17.552
									c0.067,0.389,0.134,0.776,0.201,1.165c6.742,38.734,15.535,80.463,26.705,125.387c0.002,0.008,0.004,0.017,0.006,0.025
									c0-0.001-0.001-0.003-0.001-0.004c21.82,87.757,52.698,187.674,95.233,301.412
									c31.131-69.872,69.827-145.884,115.146-215.183l0,0c2.909-4.448,5.756-8.957,8.719-13.345
									c-2.673-4.112-5.158-8.197-7.55-12.267c-0.423-0.72-0.854-1.442-1.269-2.161c-2.31-4.006-4.502-7.994-6.556-11.957
									c-0.245-0.472-0.476-0.941-0.717-1.413c-4.174-8.159-7.821-16.221-11.015-24.181c-1.682-4.207-3.272-8.393-4.701-12.538
									c0.61,4.845,1.431,9.777,2.375,14.754c-2.538,4.585-5.069,9.174-7.552,13.771c-24.007,44.445-89.696,38.068-105.364-9.956
									c-27.002-82.763-47.139-157.018-61.733-223.582c-3.062-13.966,5.867-27.948,19.904-30.667
									C1755.18,2351.271,1804.999,2239.296,1812.526,2158.807z"/>
							</g>
						</g>
					</g>
					<g style="opacity:0.3;">
						<g>
							<g>
								<path style="fill:#000072;" d="M1860,2680c0,0,80.292,196.69,386.94,277.315c36.778,9.67,66.956,35.995,81.958,70.939
									c31.57,73.535,89.225,197.05,139.382,246.035c8.237,8.044,12.984,19.215,12.346,30.711c-0.625,11.25-5.625,22.5-23.125,22.5
									c0,0,55,45,25,135c0,0-80,175-145,190c0,0,145-10,170-95c0,0,25-130,15-200l15-65c0,0-160-255-175-400
									C2362.5,2892.5,2112.5,2937.5,1860,2680z"/>
							</g>
						</g>
					</g>
					<g style="opacity:0.3;">
						<g>
							<g>
								<path style="fill:#000072;" d="M2135,3420c0,0-80-40-195-15c0,0-72.5,2.5-112.5-42.5l-75,100l-10,30l140,10h95l45,10l115,45
									c0,0-5,10,5,0S2135,3420,2135,3420z"/>
							</g>
						</g>
					</g>
				</g>
				<g>
					<g>
						<g style="opacity:0.7;">
							<g>
								<g>
									<path style="fill:#FFFFFF;" d="M2386.147,3385.946h0.061c0,0,18.54-34.217,88.415-17.68
										c-3.69-18.795-11.977-31.58-25.277-34.765c-40.482-9.66-63.732-2.317-76.217,5.627
										C2377.962,3352.549,2382.569,3368.127,2386.147,3385.946z"/>
								</g>
							</g>
						</g>
						<g style="opacity:0.7;">
							<g>
								<g>
									<path style="fill:#FFFFFF;" d="M2175.471,3380.609c6.319-21.534,28.528-35.583,50.062-29.264
										c2.02,0.586,4.006,1.346,5.928,2.312c9.925,4.983,21.937,2.028,27.363-7.662l0,0c14.412-25.01,19.224-32.993,49.715-50.907
										c11.145-6.522,24.052-6.683,34.782-1.76c-2.525-6.249-5.051-11.968-7.472-17.004c-9.571-19.877-33.865-27.24-52.945-16.074
										c-30.491,17.915-49.693,46.933-61.534,73.743l-0.798-0.307c-5.154-9.755-12.638-14.847-20.675-17.178
										c-21.534-6.319-43.742,7.73-50.062,29.264c-32.331,110.491-12.515,185.829,21.35,236.074c0.061,0,0.061,0.061,0.061,0.061
										c5.909,8.763,12.254,16.744,18.821,24.03C2160.497,3555.888,2145.363,3483.506,2175.471,3380.609z"/>
								</g>
							</g>
						</g>
					</g>
					<g style="opacity:0.7;">
						<g>
							<g>
								<path style="fill:#FFFFFF;" d="M2348.487,1990.491c0,0-25.03-19.264-31.595-42.086c-21.84-1.473-42.699-0.92-62.7,1.472
									c-136.626,15.889-230.491,114.417-291.228,212.761c-42.945,69.693-69.326,139.264-82.577,179.51
									c-6.503,19.816-9.816,32.454-10.307,34.54c3.391-7.639,75.477-168.064,194.536-280.959c3.598-3.412,8.919-4.1,13.397-1.971
									c16.828,8.003,49.406-0.203,80.068-21.636c27.687-19.354,45.773-43.88,47.754-62.123c0.474-4.368,3.661-8.022,7.822-9.431
									C2255.719,1986.325,2300.808,1981.48,2348.487,1990.491z"/>
							</g>
						</g>
					</g>
					<g style="opacity:0.7;">
						<g>
							<g>
								<path style="fill:#FFFFFF;" d="M1685.034,2063.001c4.172-6.81,9.509-12.332,15.521-16.565l1.718-1.104
									c0,0,49.598-28.709,89.732-4.14c-39.665-70.183-117.017-25.365-117.017-25.365l-1.718,1.104
									c-6.012,4.233-11.349,9.755-15.521,16.565c-26.381,43.006-55.89,122.822-51.902,262.332
									c9.185,6.79,18.189,11.641,26.997,14.918C1631.242,2180.233,1659.588,2104.484,1685.034,2063.001z"/>
							</g>
						</g>
					</g>
				</g>
			</g>
			<g style="opacity:0.6;">
				<g>
					<g>
						<path style="fill:#FFFFFF;" d="M2306.319,1868.006c0,0,170.86,85.46,177.117,87.853
							c-4.846-54.663,20.062-79.081,20.062-79.081c191.613,123.636,310.189,367.279,315.126,589.615
							c15.465-235.94-106.406-510.685-313.972-644.615c0,0-24.908,24.418-20.061,79.081c-6.258-2.393-177.117-87.853-177.117-87.853
							s-4.872,25.485-2.004,60.494C2305.947,1869.974,2306.319,1868.006,2306.319,1868.006z"/>
					</g>
				</g>
			</g>
			<g>
				<g>
					<g>
						<g>
							<path style="fill:#000072;" d="M2315.689,1966.786l-19.869-0.463c-3.31-0.052-6.626-0.236-9.93-0.188l-9.884,0.643
								c-6.575,0.531-13.211,0.591-19.74,1.475l-19.54,2.991c-25.822,5.076-51.16,12.797-75.046,24.144
								c-23.792,11.501-46.309,25.754-67.301,42.22c-20.969,16.53-40.054,35.586-57.878,55.794
								c-17.832,20.233-34.058,42.042-48.829,64.875c-14.83,22.794-28.361,46.527-40.679,70.925
								c-12.317,24.399-23.421,49.468-33.374,74.98c-5.056,12.727-9.615,25.639-14.045,38.569
								c-4.319,12.847-8.487,26.233-11.781,38.721c-0.665,2.52-1.793,4.794-3.268,6.755l-0.128,0.16
								c-1.085,1.428-2.866,3.954-4.264,6.112c-1.482,2.247-2.948,4.57-4.344,6.944c-2.835,4.72-5.493,9.611-7.969,14.598
								c-4.969,9.969-9.279,20.309-12.832,30.884c-7.036,21.16-11.353,43.221-12.011,65.395c-0.367,11.078-0.049,22.191,1.34,33.198
								c0.475,5.529,1.603,10.977,2.464,16.46c1.206,5.422,2.236,10.89,3.775,16.245c5.829,21.499,14.624,42.296,25.844,61.927
								c22.058,39.26,55.107,72.321,91.085,101.487c18.066,14.574,37.39,27.667,57.127,40.053
								c19.831,12.286,40.51,23.19,61.514,33.391c84.476,39.619,177.693,62.101,270.621,59.641
								c46.355-1.349,92.621-8.19,136.776-22.196c44.173-13.868,86.342-33.964,125.209-59.336
								c10.055-5.994,18.892-13.146,28.044-19.989l6.845-5.15c2.318-1.674,4.277-3.775,6.434-5.639l12.68-11.502
								c2.09-1.94,4.291-3.77,6.294-5.798l5.794-6.304l11.611-12.585c4.067-4.025,7.186-8.869,10.781-13.303l10.484-13.56
								c26.626-37.243,45.823-79.721,58.601-124.072c12.757-44.425,19.006-90.854,19.927-137.445
								c0.912-46.621-3.471-93.45-12.244-139.46c-17.656-92.026-52.504-180.978-101.938-260.61
								c-49.44-79.473-114.203-150.018-192.372-200.529l22.851-2.31l0.002-0.002c0.488-0.379,0.013,0.311-0.074,0.497l-0.646,1.152
								l-1.448,2.592c-0.932,1.867-1.96,3.737-2.86,5.781c-1.897,3.967-3.383,8.339-4.911,12.722
								c-2.876,8.889-4.718,18.534-5.891,28.615c-1.502,10.109-0.935,20.631-1.47,31.635c-0.07,5.51-0.232,11.166-0.929,17.113
								c-0.319,5.88-0.974,11.982-2.534,18.642c-5.067-4.299-9.23-9.155-13.056-14.234c-3.412-5.231-6.5-10.715-8.979-16.448
								c-1.096-2.913-2.181-5.859-3.087-8.853c-1.018-2.972-1.802-6.008-2.36-9.128c-0.635-3.098-1.284-6.215-1.833-9.355
								c-0.419-3.167-0.735-6.384-1.021-9.601c-0.975-12.888-0.207-26.331,3.477-39.531c1.905-6.587,4.286-13.104,7.755-19.33
								c1.563-3.159,3.59-6.186,5.732-9.171c1.15-1.503,2.153-2.966,3.542-4.446l2.031-2.23c0.867-0.89,1.298-1.321,2.803-2.718
								l0.01-0.01c6.137-6.174,15.622-6.995,22.649-2.446l0.203,0.135c83.536,54.01,151.751,128.602,203.658,211.996
								c51.881,83.606,88.29,176.53,106.852,273.178c9.212,48.328,13.853,97.654,12.889,147.087
								c-0.981,49.4-7.597,98.975-21.362,146.913c-13.782,47.846-34.677,94.216-63.984,135.224l-11.531,14.96
								c-3.957,4.894-7.439,10.179-11.899,14.657l-12.811,13.904l-6.417,6.94c-2.214,2.239-4.628,4.275-6.935,6.421l-14.007,12.703
								c-2.383,2.059-4.573,4.354-7.117,6.213l-7.534,5.701c-10.066,7.562-19.992,15.466-30.594,21.81
								c-41.556,27.133-86.889,48.757-134.391,63.654c-47.486,15.045-97.194,22.416-146.782,23.843
								c-99.467,2.585-198.056-21.33-287.282-63.167c-22.208-10.771-44.062-22.309-65.083-35.327
								c-20.939-13.13-41.448-27.04-60.793-42.634c-19.338-15.585-37.836-32.365-54.89-50.833
								c-4.159-4.733-8.416-9.36-12.481-14.194l-11.801-14.923l-10.97-15.744c-3.304-5.416-6.686-10.779-9.903-16.251
								c-12.618-22.066-22.734-45.836-29.464-70.712c-1.763-6.19-2.997-12.542-4.37-18.839c-1.031-6.375-2.297-12.714-2.878-19.16
								c-1.6-12.828-1.993-25.805-1.56-38.718c0.788-25.865,5.79-51.459,13.912-75.842c4.099-12.192,9.049-24.076,14.795-35.602
								c2.867-5.767,5.947-11.438,9.294-17.015c1.65-2.799,3.388-5.56,5.211-8.325c1.891-2.864,3.526-5.282,6.081-8.63l-3.395,6.913
								c3.835-14.541,8.024-27.845,12.594-41.496c4.625-13.51,9.381-26.963,14.642-40.215
								c10.365-26.566,21.924-52.668,34.798-78.174c12.875-25.501,27.063-50.405,42.718-74.465
								c15.592-24.092,32.817-47.272,51.942-68.987c19.119-21.685,39.751-42.289,62.71-60.402
								c22.983-18.049,47.9-33.864,74.464-46.673c26.669-12.668,55.151-21.418,84.13-27.068l21.905-3.346
								c7.314-0.975,14.701-1.099,22.05-1.671l11.037-0.687c3.676-0.056,7.349,0.125,11.024,0.181l22.046,0.544
								c10.152,0.251,18.179,8.684,17.928,18.836c-0.251,10.152-8.684,18.179-18.836,17.928L2315.689,1966.786z"/>
						</g>
					</g>
				</g>
				<g>
					<g>
						<g>
							<path style="fill:#000072;" d="M2472.998,1918.04l-4.027-1.804l-2.937-1.411l-5.667-2.747l-11.155-5.473l-22.201-10.97
								l-44.297-22.01l-88.49-44.149l26.305-12.992l-0.001,0.004l-0.435,9.295l-0.182,9.927c-0.087,6.645,0.269,13.319,0.545,19.952
								c0.379,6.635,0.966,13.252,1.85,19.796c0.719,6.565,1.778,13.065,3.062,19.485c5.157,25.681,14.145,50.074,27.794,71.609
								c13.73,21.462,32.231,39.835,54.275,54.546c5.473,3.754,10.971,7.6,16.813,11.076c5.624,3.886,11.697,7.078,17.65,10.829
								c2.964,1.903,6.058,3.591,9.166,5.311c3.085,1.796,6.201,3.59,9.312,5.53c6.31,3.613,12.765,7.159,19.208,11.58
								c-7.551,1.098-15.178,1.657-22.789,1.674c-7.517-0.4-15.22-0.633-22.689-2.058c-7.501-1.335-15.055-2.811-22.353-5.297
								c-3.659-1.201-7.369-2.313-10.971-3.745l-10.672-4.7c-27.979-13.643-53.311-34.781-72.014-60.882
								c-18.635-26.168-30.582-56.653-35.772-87.523c-1.305-7.727-2.317-15.477-2.936-23.234c-0.638-7.762-0.713-15.53-0.653-23.273
								c0.076-7.747,0.619-15.469,1.502-23.179c0.407-3.859,0.936-7.706,1.635-11.571c0.691-3.983,1.343-7.465,2.502-12.076
								l0.002-0.015c1.832-9.941,11.376-16.515,21.317-14.683c1.699,0.313,3.299,0.851,4.777,1.578l0.213,0.112l88.433,44.12
								l44.236,21.981l22.114,10.927l20.711,10.091L2472.998,1918.04z"/>
						</g>
					</g>
				</g>
				<g>
					<g>
						<g>
							<path style="fill:#000072;" d="M2685.64,3438.554c-16.611,0-32.908-6.113-45.759-17.764
								c-203.528-184.478-291.028-509.248-294.653-522.983c-2.593-9.829,3.269-19.893,13.096-22.49
								c9.822-2.593,19.895,3.271,22.495,13.091c0.862,3.262,88.455,328.062,283.784,505.107
								c9.019,8.179,21.152,10.449,32.463,6.069c11.311-4.375,18.757-14.229,19.924-26.353
								c11.472-119.331,14.551-351.191-93.721-563.237c-4.622-9.053-1.03-20.137,8.022-24.761c9.048-4.619,20.137-1.03,24.761,8.022
								c112.522,220.371,109.434,460.171,97.578,583.501c-2.488,25.889-19.072,47.788-43.279,57.158
								C2702.295,3437.031,2693.928,3438.554,2685.64,3438.554z"/>
						</g>
					</g>
				</g>
				<g>
					<g>
						<g>
							<path style="fill:#000072;" d="M1602.057,3251.152c-4.221-14.278-4.806-28.976-3.414-43.494
								c1.388-14.55,5.192-28.989,11.352-42.765c1.43-3.476,3.219-6.846,5.066-10.182c1.81-3.354,3.668-6.695,5.904-9.875
								c2.206-3.185,4.142-6.541,6.63-9.587c2.44-3.08,4.981-6.094,7.527-9.111c5.634-5.596,11.084-11.527,17.797-16.138
								c3.444-2.449,5.804-4.669,11.265-7.572c4.95-2.452,10.223-4.536,15.786-5.389c11.045-1.899,22.64-0.45,32.773,4.295
								c10.094,4.733,18.823,12.67,24.241,22.219c0.623,1.119,1.445,2.565,1.853,3.435l1.165,2.507l2.263,5.029
								c1.493,3.355,2.873,6.743,4.213,10.138c2.6,6.827,4.872,13.735,6.932,20.676c3.973,13.913,7.629,27.867,9.031,42.169
								c1.153,14.317,0.154,28.946-5.637,43.304c-1.056,2.618-4.035,3.885-6.653,2.828c-1.005-0.405-1.811-1.094-2.363-1.937
								l-0.033-0.051c-8.309-12.662-13.402-24.908-17.964-37.119c-2.227-6.106-4.117-12.229-6.202-18.281
								c-2.149-6.027-4.388-12.001-6.918-17.828c-2.492-5.839-5.157-11.58-8.046-17.163c-1.391-2.814-2.807-5.611-4.309-8.342
								l-2.263-4.085l-1.152-2.024c-0.372-0.636-0.478-0.614-0.702-0.964c-2.925-4.125-7.984-6.01-12.646-5.234
								c-1.172,0.145-2.29,0.563-3.455,0.993c-0.633,0.139-3.533,2.267-5.641,3.708c-4.681,2.836-8.802,6.646-13.115,10.237
								c-8.271,7.735-15.537,17.026-22.219,27.141c-13.646,20.264-25.063,43.363-39.044,68.618l-0.033,0.06
								c-0.29,0.524-0.95,0.713-1.474,0.424C1602.314,3251.65,1602.136,3251.414,1602.057,3251.152z"/>
						</g>
					</g>
				</g>
				<g>
					<g>
						<g>
							<path style="fill:#000072;" d="M1692.156,3512.382c-9.053,0-18.174-1.792-26.772-5.376
								c-44.111-18.398-183.84-94.868-129.849-306.289c7.715-30.225,37.7-48.77,66.838-41.362
								c13.147,3.354,23.745,11.504,30.649,23.574l-31.948,18.281c-1.973-3.442-4.302-5.293-7.793-6.187
								c-9.321-2.358-19.431,4.404-22.083,14.8c-45.41,177.827,60.647,243.311,108.354,263.208
								c8.252,3.447,17.393,3.398,25.083-0.112c91.572-41.836,134.517-181.553,127.383-243.696
								c-1.958-17.051-7.146-25.557-11.418-26.426c-47.966-9.712-60.847,8.032-60.972,8.213c0.317-0.459,0.437-0.737,0.437-0.737
								l-32.285-17.686c2.332-4.253,24.912-41.123,100.129-25.864c12.996,2.632,35.559,13.706,40.679,58.306
								c9.492,82.695-43.696,233.423-148.657,281.372C1711.209,3510.385,1701.719,3512.382,1692.156,3512.382z"/>
						</g>
					</g>
				</g>
				<g>
					<g>
						<g>
							<path style="fill:#000072;" d="M2202.107,3398.273c-3.475-15.768-3.032-31.792-0.581-47.502
								c2.533-15.713,7.425-31.236,14.919-45.819c7.511-14.54,16.807-28.639,28.698-41.071c6.202-5.952,12.467-11.977,19.798-16.818
								c3.744-2.579,6.472-4.929,12.275-7.731c5.287-2.401,10.901-4.326,16.752-5.096c11.658-1.734,23.773,0.374,34.252,5.646
								c10.48,5.264,19.294,13.996,24.673,24.198c0.625,1.202,1.454,2.718,1.862,3.679l1.178,2.782l2.283,5.579
								c1.506,3.721,2.886,7.476,4.224,11.238c2.69,7.52,4.888,15.175,6.927,22.831c4.134,15.295,6.611,30.986,6.82,46.765
								c0.164,15.764-1.407,31.574-6.634,46.971c-0.41,1.208-1.723,1.856-2.931,1.445c-0.61-0.207-1.084-0.66-1.344-1.197
								c-6.973-14.497-12.034-28.479-17.161-42.187l-14.622-40.401c-2.494-6.611-5.257-13.094-8.147-19.468
								c-1.438-3.189-2.904-6.362-4.47-9.466l-2.36-4.644l-1.204-2.302c-0.395-0.728-0.535-0.818-0.788-1.269
								c-3.602-5.696-10.305-8.613-16.684-7.822c-1.613,0.074-3.143,0.663-4.709,1.208c-1.035,0.32-4.273,2.563-6.8,4.064
								c-5.517,2.938-10.179,7.289-15.296,11.09c-9.647,8.436-18.344,18.565-26.025,29.789
								c-15.56,22.529-28.277,48.083-43.377,75.681l-0.023,0.043c-0.215,0.393-0.709,0.538-1.102,0.322
								C2202.297,3398.695,2202.156,3398.493,2202.107,3398.273z"/>
						</g>
					</g>
				</g>
				<g>
					<g>
						<g>
							<path style="fill:#000072;" d="M2293.491,3688.364c-9.338,0-18.687-1.909-27.339-5.718
								c-48.645-21.411-202.07-109.351-134.001-342.026c9.368-32.036,42.083-50.781,72.922-41.772
								c13.87,4.053,24.846,13.12,31.753,26.23l-32.563,17.158c-2.275-4.316-5.208-6.802-9.509-8.057
								c-11.162-3.262-23.66,4.419-27.273,16.772c-58.022,198.34,60.044,274.478,113.501,298.003
								c7.505,3.301,16.14,3.496,23.687,0.508c103.999-41.06,158.486-195.376,153.499-265.718
								c-1.279-18.057-6.431-30.757-13.118-32.354c-53.699-12.832-68.027,8.159-68.611,9.058c0.239-0.371,0.337-0.586,0.337-0.586
								l-32.393-17.49c1.033-1.909,26.24-46.602,109.216-26.782c13.918,3.325,37.791,16.26,41.287,65.547
								c6.545,92.334-59.031,256.104-176.694,302.563C2310.31,3686.811,2301.905,3688.364,2293.491,3688.364z"/>
						</g>
					</g>
				</g>
				<g>
					<g>
						<g>
							<path style="fill:#000072;" d="M1655.005,3154.584c-1.702,0-3.433-0.239-5.151-0.737
								c-9.758-2.842-15.369-13.052-12.527-22.813c0.789-2.715,80.605-273.931,217.361-476.436
								c5.686-8.418,17.129-10.645,25.552-4.951c8.423,5.688,10.642,17.129,4.954,25.557
								c-133.464,197.632-211.748,463.452-212.524,466.113C1670.327,3149.36,1662.979,3154.584,1655.005,3154.584z"/>
						</g>
					</g>
				</g>
				<g>
					<g>
						<g>
							<path style="fill:#000072;" d="M1880.362,2360.537c-8.254,0-15.762-5.591-17.847-13.965
								c-23.489-94.404-49.858-171.772-78.374-229.961c-4.475-9.131-0.701-20.156,8.425-24.629
								c9.138-4.463,20.154-0.693,24.626,8.428c29.661,60.522,56.929,140.352,81.045,237.275
								c2.454,9.863-3.552,19.849-13.418,22.305C1883.328,2360.361,1881.834,2360.537,1880.362,2360.537z"/>
						</g>
					</g>
				</g>
				<g>
					<g>
						<g>
							<path style="fill:#000072;" d="M1746.094,2911.865c-7.458,0-14.475-4.565-17.241-11.963
								c-100.769-269.463-137.043-463.286-141.262-601.631c-0.166-1.26-0.203-2.534-0.107-3.809
								c-3.745-141.733,26.345-224.561,54.604-270.605c5.381-8.765,12.324-16.167,20.632-21.987l2.141-1.421
								c0.3-0.2,0.608-0.391,0.92-0.571c1.787-1.035,44.238-25.239,87.161-13.232c23.647,6.597,42.456,22.388,55.903,46.934
								c30.417,55.508-5.757,208.183-78.582,271.758c-32.671,28.521-68.899,36.064-104.553,22.5
								c9.497,152.3,55.708,340.137,137.62,559.175c3.56,9.521-1.272,20.122-10.791,23.687
								C1750.415,2911.489,1748.235,2911.865,1746.094,2911.865z M1624.009,2285.991c28.403,17.734,55.315,14.951,82.046-8.384
								c61.88-54.019,91.743-187.593,70.51-226.343c-8.589-15.674-19.495-25.195-33.337-29.116
								c-26.184-7.412-55.022,7.437-58.665,9.399l-1.133,0.747c-3.745,2.637-7.239,6.367-9.971,10.82
								C1649.541,2082.084,1621.677,2155.776,1624.009,2285.991z"/>
						</g>
					</g>
				</g>
				<g>
					<g>
						<g>
							<path style="fill:#000072;" d="M2171.509,3600.571c-4.875,0-9.744-1.924-13.362-5.742
								c-0.708-0.742-76.064-77.603-208.823-74.102c-144.922,3.979-222.268-21.938-225.488-23.042
								c-9.614-3.301-14.731-13.77-11.431-23.384c3.296-9.6,13.767-14.712,23.357-11.44c1.094,0.371,75.325,24.844,212.551,21.069
								c149.744-4.087,233.079,81.914,236.553,85.576c6.992,7.378,6.677,19.028-0.701,26.021
								C2180.608,3598.901,2176.055,3600.571,2171.509,3600.571z"/>
						</g>
					</g>
				</g>
				<g>
					<g>
						<g>
							<path style="fill:#000072;" d="M2362.239,3672.441c-9.216,0-17.788-0.581-25.422-1.572
								c-10.078-1.313-17.185-10.552-15.872-20.63c1.309-10.073,10.508-17.236,20.601-15.874
								c5.874,0.728,140.764,16.24,162.329-106.333c12.019-68.296,12.185-106.807,12.322-137.754
								c0.149-34.082,0.266-61.001,14.448-107.227c2.981-9.717,13.291-15.186,22.993-12.197
								c9.719,2.983,15.178,13.281,12.197,22.998c-12.588,41.021-12.688,64.331-12.83,96.587
								c-0.142,32.344-0.317,72.588-12.876,143.97C2520.75,3644.545,2426.223,3672.441,2362.239,3672.441z"/>
						</g>
					</g>
				</g>
				<g>
					<g>
						<g>
							
								<path style="fill:none;stroke:#000072;stroke-width:24.5399;stroke-linecap:round;stroke-linejoin:round;stroke-miterlimit:10;" d="
								M2040.183,2598.468"/>
						</g>
					</g>
				</g>
				<g>
					<g>
						<g>
							<path style="fill:#000072;" d="M2030.794,2729.687c-2.693,0-5.398-0.029-8.157-0.098l0,0c-0.007,0-0.012,0-0.02,0
								c-0.002-0.005-0.01-0.005-0.02,0c0-0.005-0.015-0.005-0.02,0h-0.002c-0.012-0.005-0.02-0.005-0.024,0
								c-0.005,0-0.007,0-0.012,0c-3.105-0.103-5.911-1.348-8.013-3.325c-0.002-0.005-0.005-0.005-0.005-0.005
								c-0.002-0.005-0.002-0.005-0.005-0.005c-0.249-0.234-0.486-0.479-0.713-0.732c-0.002,0-0.005-0.005-0.007-0.01h-0.002
								c-1.58-1.763-2.656-3.984-3.008-6.431c-9.004-55.439,5.264-93.916,15.322-112.866c-17.798-5.42-40.923-6.274-49.98-5.957
								c-4.536-0.024-8.704-2.207-10.959-6.094c-2.261-3.887-2.222-8.696,0.11-12.534c2.434-4.014,61.125-98.247,192.849-98.247
								c0.056,0,0.105,0,0.161,0c11.975,0.01,23.323,5.645,30.359,15.078c10.879,14.585,31.155,45.107,44.692,85.625
								c3.892,11.66,2.957,24.209-2.634,35.337C2213.872,2652.949,2161.028,2729.682,2030.794,2729.687z M2166.389,2602.675
								c4.004,0,7.861,1.963,10.188,5.43c3.108,4.629,2.705,10.771-0.979,14.951c-24.558,27.871-68.562,57.964-102.034,78.779
								c85.64-13.896,122.4-67.915,135.212-93.428c2.639-5.254,3.096-11.128,1.287-16.548
								c-12.451-37.261-31.086-65.317-41.089-78.73c-2.429-3.257-6.431-5.205-10.701-5.205c-0.044,0-0.103,0-0.144,0
								c-84.998,0-135.823,43.379-158.269,68.726c15.605,1.421,35.544,4.854,50.1,13.032c0.139,0.078,0.278,0.156,0.417,0.239
								l2.441,1.392c23.027,13.145,54.568,31.133,109.546,12.041C2163.689,2602.895,2165.047,2602.675,2166.389,2602.675z
								 M2048.179,2616.87c-7.114,12.998-18.169,40.278-15.244,80.688c21.531-12.49,60.938-36.416,92.488-61.499
								C2090.982,2638.222,2066.541,2627.001,2048.179,2616.87z"/>
						</g>
					</g>
				</g>
				<g>
					<g>
						<g>
							<g>
								
									<ellipse transform="matrix(0.375 -0.927 0.927 0.375 -871.3977 3778.8511)" style="fill:#000072;" cx="2366.799" cy="2535.677" rx="84.317" ry="57.572"/>
							</g>
						</g>
					</g>
					<g>
						<g>
							<g>
								
									<ellipse transform="matrix(0.4605 -0.8877 0.8877 0.4605 -960.4982 3455.866)" style="fill:#FFFFFF;" cx="2362.766" cy="2518.1" rx="28.774" ry="19.647"/>
							</g>
						</g>
					</g>
				</g>
				<g>
					<g>
						<g>
							
								<ellipse transform="matrix(0.4153 -0.9097 0.9097 0.4153 -992.2178 3233.8618)" style="fill:#000072;" cx="2019.396" cy="2388.742" rx="81.102" ry="55.377"/>
						</g>
					</g>
				</g>
				<g>
					<g>
						<g>
							
								<ellipse transform="matrix(0.3279 -0.9447 0.9447 0.3279 -880.1629 3520.3469)" style="fill:#FFFFFF;" cx="2034.02" cy="2378.752" rx="28.687" ry="19.588"/>
						</g>
					</g>
				</g>
			</g>
		</g>
	</g>
</g>
</svg>
